#tb 0: 1/1000
0,          0,          0,        0,      864, 9da5409d344e7b8380688569e54803a5
0,         33,         33,        0,      864, 9b51e14e2e624ee2b430e9eaf1a48798
0,         66,         66,        0,      864, b8811779f363b9a595e3a92737771ea9
0,        100,        100,        0,      864, e5a0c335e5e713a3e77fff0b65127fb9
0,        133,        133,        0,      864, 1bffa3283b463a356794c8f7a73f8c54
0,        166,        166,        0,      864, 97c13270621a583eb9e13c05f9d792f0
0,        200,        200,        0,      864, a6f81a4dde1ffc352ebe9d8ab8782f35
0,        233,        233,        0,      864, 91a955a86ce9378ff3442794ce0934c6
0,        266,        266,        0,      864, 2e4f8938e9c88b328a258a0b99366ea6
0,        300,        300,        0,      864, adbbbc192cf36e1fc7c308824765d482
